Patient4_TMGait_0pt7_02_left_24_GRF.mot
version=1
nRows=38
nColumns=19
inDegrees=no
endheader
time	F1x	F1y	F1z	M1x	M1y	M1z	F2x	F2y	F2z	M2x	M2y	M2z	EC1x	EC1y	EC1z	EC2x	EC2y	EC2z
27.27	-0.39827	2.4882	9.5937	-3.6689	-4.8102	3.8125	-35.8212	708.0909	-101.9506	258.2261	122.3964	804.4785	-0.0592	0.0182	-0.0073	-0.0462	0.0165	0.9585
27.2816	-0.071104	2.6013	6.8369	-2.8549	-3.5281	3.6489	-34.2249	713.6812	-95.8506	260.0762	116.5349	805.6899	-0.0592	0.0182	-0.0073	-0.0462	0.0165	0.9585
27.2933	0.12443	2.808	4.371	-2.1723	-2.366	3.6641	-32.2923	718.7788	-90.2153	262.0035	110.6952	805.4943	-0.0592	0.0182	-0.0073	-0.0462	0.0165	0.9585
27.3049	0.19825	3.0755	2.4096	-1.6648	-1.4387	3.8404	-29.8931	723.6807	-85.1743	264.1629	104.9202	804.2665	-0.0592	0.0182	-0.0073	-0.0462	0.0165	0.9585
27.3166	0.2157	3.3558	0.98399	-1.3277	-0.75094	4.0956	-26.8167	728.9212	-80.8165	266.7515	99.2418	802.587	-0.0592	0.0182	-0.0073	-0.0462	0.0165	0.9585
27.3282	0.16868	3.6313	0.067737	-1.1358	-0.31282	4.4095	-22.8936	735.0397	-77.0587	269.947	93.5615	801.0308	-0.0592	0.0182	-0.0073	-0.0462	0.0165	0.9585
27.3399	0.10009	3.8439	-0.45235	-1.0427	-0.061612	4.6752	-18.0312	742.4884	-73.873	273.8639	87.8772	800.1372	-0.0592	0.0182	-0.0073	-0.0462	0.0165	0.9585
27.3515	-0.0098018	3.9447	-0.65591	-0.99626	0.012454	4.8357	-12.289	751.4135	-71.1979	278.4864	82.2074	800.181	-0.0592	0.0182	-0.0073	-0.0462	0.0165	0.9585
27.3631	-0.1352	3.8419	-0.65905	-0.93794	-0.030257	4.7356	-5.8916	761.5009	-69.0019	283.6092	76.6578	801.033	-0.0592	0.0182	-0.0073	-0.0462	0.0165	0.9585
27.3748	-0.31309	3.4455	-0.52876	-0.80901	-0.1781	4.2745	0.84398	771.9022	-67.3233	288.8231	71.426	802.0686	-0.0592	0.0182	-0.0073	-0.0462	0.0165	0.9585
27.3864	-0.5111	2.6205	-0.3402	-0.54846	-0.37808	3.2793	7.507	781.3901	-66.1661	293.5843	66.6984	802.3144	-0.0592	0.0182	-0.0073	-0.0462	0.0165	0.9585
27.3981	-0.74215	1.2633	-0.14509	-0.10792	-0.59989	1.6433	13.7217	788.6056	-65.5537	297.3184	62.6623	800.6559	-0.0592	0.0182	-0.0073	-0.0462	0.0165	0.9585
27.4097	-0.94628	-0.71285	0.014956	0.54486	-0.78722	-0.74942	19.1745	792.4165	-65.383	299.5591	59.3583	796.1846	-0.0592	0.0182	-0.0073	-0.0462	0.0165	0.9585
27.4214	-1.1059	-3.2692	0.085487	1.3988	-0.87192	-3.8399	23.7147	792.0928	-65.5557	300.0162	56.7746	788.324	-0.0592	0.0182	-0.0073	-0.0462	0.0165	0.9585
27.433	-1.1348	-6.2482	0.037439	2.3944	-0.78165	-7.4637	27.3045	787.4563	-65.9094	298.6282	54.7838	776.9855	-0.0592	0.0182	-0.0073	-0.0462	0.0165	0.9585
27.4446	-0.95426	-9.1976	-0.20917	3.3724	-0.39596	-11.0738	30.0593	778.8274	-66.3552	295.5362	53.2723	762.5036	-0.0592	0.0182	-0.0073	-0.0462	0.0165	0.9585
27.4563	-0.41845	-11.3427	-0.68703	4.0585	0.38399	-13.7579	32.1137	766.9089	-66.8308	291.0351	52.1329	745.5436	-0.0592	0.0182	-0.0073	-0.0462	0.0165	0.9585
27.4679	0.59779	-11.4199	-1.4792	4.0084	1.702	-13.9777	33.6644	752.6022	-67.3495	285.4948	51.3175	726.9264	-0.0592	0.0182	-0.0073	-0.0462	0.0165	0.9585
27.4796	2.2618	-7.6556	-2.5825	2.603	3.6303	-9.6179	34.8062	736.7882	-67.915	279.2796	50.7971	707.4588	-0.0592	0.0182	-0.0073	-0.0462	0.0165	0.9585
27.4912	4.6577	2.284	-4.0015	-0.95952	6.2004	2.1257	35.6261	720.1616	-68.5226	272.6823	50.5386	687.7545	-0.0592	0.0182	-0.0073	-0.0462	0.0165	0.9585
27.5029	7.8096	21.0937	-5.5873	-7.5937	9.2458	24.4505	36.1169	703.0975	-69.1259	265.8703	50.494	668.1547	-0.0592	0.0182	-0.0073	-0.0462	0.0165	0.9585
27.5145	11.5062	51.4845	-7.0945	-18.2038	12.3846	60.6077	36.2546	685.4962	-69.6117	258.8339	50.5538	648.5411	-0.0592	0.0182	-0.0073	-0.0462	0.0165	0.9585
27.5261	15.2684	95.4094	-8.0385	-33.4177	14.8593	112.9187	35.9753	666.8191	-69.8142	251.3909	50.5788	628.4206	-0.0592	0.0182	-0.0073	-0.0462	0.0165	0.9585
27.5378	18.1357	152.987	-7.6978	-53.2041	15.4573	181.5652	35.2302	646.0515	-69.4924	243.189	50.3637	606.8225	-0.0592	0.0182	-0.0073	-0.0462	0.0165	0.9585
27.5494	18.6114	220.9967	-5.0531	-76.3659	12.4383	262.7341	33.9929	621.9712	-68.4096	233.7947	49.7046	582.6113	-0.0592	0.0182	-0.0073	-0.0462	0.0165	0.9585
27.5611	14.9968	292.5442	1.0104	-100.4425	3.9344	348.2599	32.3241	593.3737	-66.3469	222.7875	48.3822	554.62	-0.0592	0.0182	-0.0073	-0.0462	0.0165	0.9585
27.5727	7.5041	359.3919	10.9867	-122.6056	-10.457	428.1883	30.3055	559.4742	-63.2457	209.8961	46.3176	522.0643	-0.0592	0.0182	-0.0073	-0.0462	0.0165	0.9585
27.5844	-2.2471	416.6188	23.4675	-141.2904	-28.4889	496.2913	28.0874	520.0543	-59.2087	195.046	43.5503	484.6367	-0.0592	0.0182	-0.0073	-0.0462	0.0165	0.9585
27.596	-12.8024	464.7263	36.5214	-156.8083	-47.3393	552.8039	25.7352	475.4059	-54.5348	178.3295	40.3079	442.5412	-0.0592	0.0182	-0.0073	-0.0462	0.0165	0.9585
27.6076	-23.2081	507.541	48.2778	-170.604	-64.4501	602.086	23.2678	426.1393	-49.5423	159.9445	36.8524	396.2804	-0.0592	0.0182	-0.0073	-0.0462	0.0165	0.9585
27.6193	-32.4594	548.4845	57.3568	-183.9656	-77.8942	648.1165	20.5371	373.1576	-44.4344	140.1918	33.3902	346.6973	-0.0592	0.0182	-0.0073	-0.0462	0.0165	0.9585
27.6309	-40.0032	588.9582	63.321	-197.4183	-86.9492	692.6185	17.3958	317.6589	-39.3095	119.4925	30.0393	294.9036	-0.0592	0.0182	-0.0073	-0.0462	0.0165	0.9585
27.6426	-45.3232	628.3043	66.2483	-210.7279	-91.6086	734.7599	13.711	261.3552	-34.1516	98.4626	26.8062	242.5185	-0.0592	0.0182	-0.0073	-0.0462	0.0165	0.9585
27.6542	-48.2893	664.9813	67.3236	-223.2678	-93.1835	772.8544	9.5961	206.3817	-29.0412	77.8884	23.7153	191.4915	-0.0592	0.0182	-0.0073	-0.0462	0.0165	0.9585
27.6659	-48.9068	697.6913	67.4372	-234.492	-92.7871	805.4142	5.3137	155.2193	-24.0427	58.6902	20.7196	144.0977	-0.0592	0.0182	-0.0073	-0.0462	0.0165	0.9585
27.6775	-47.5375	725.6919	67.5852	-244.0342	-91.6992	831.8235	1.3994	110.1314	-19.3122	41.7236	17.7803	102.3719	-0.0592	0.0182	-0.0073	-0.0462	0.0165	0.9585
27.6891	-44.5897	748.4799	68.2197	-251.6682	-90.6353	851.6419	-1.6702	72.7083	-14.9115	27.603	14.7904	67.7695	-0.0592	0.0182	-0.0073	-0.0462	0.0165	0.9585
27.7008	-40.6532	765.8202	69.5603	-257.2875	-90.0542	864.854	-3.5293	43.5073	-10.904	16.564	11.7037	40.7608	-0.0592	0.0182	-0.0073	-0.0462	0.0165	0.9585
